<svg width="140" height="24" fill="none" xmlns="http://www.w3.org/2000/svg"><g clip-path="url(#a)"><path d="M8.578 14.73c4.127 0 7.51 3.08 7.5 7.5h-15c-.007-4.417 3.374-7.5 7.5-7.5Z" fill="#FF7009"/><path d="M14.763 4.278c-.948 0-1.623.413-2.25 1.31l-1.796 2.58V.803H6.432v7.365l-1.796-2.58c-.623-.897-1.298-1.31-2.25-1.31C.956 4.278.004 5.334 0 6.636c0 1.114.522 1.84 1.627 2.552l6.944 4.473 6.944-4.473c1.106-.713 1.632-1.438 1.628-2.552.001-1.302-.95-2.358-2.38-2.358Z" fill="#0AAD0A"/><path d="M24.847 5.49c-1.595 0-2.609-.988-2.609-2.509 0-1.52 1.038-2.481 2.61-2.481 1.595 0 2.608.987 2.608 2.507S26.418 5.49 24.847 5.49Zm2.33.964v15.778h-4.66V6.452l4.66.002ZM34.092 6.453v2.939h.228c.887-2.078 2.432-3.244 4.915-3.244 3.368 0 5.445 2.002 5.445 5.877v10.208h-4.661v-9.346c0-2.179-.936-3.166-2.786-3.166-1.928 0-3.014 1.063-3.014 3.292v9.22h-4.66V6.453h4.533ZM50.607 17.242c.178 1.369 1.013 2.078 2.508 2.078 1.646 0 2.33-.633 2.33-1.52 0-.858-.428-1.369-1.849-1.52l-2.026-.228c-3.623-.405-5.117-2.026-5.117-4.714 0-2.99 2.25-5.193 6.61-5.193 4.256 0 6.258 2.027 6.51 5.091h-4.306c-.1-1.19-.81-1.874-2.304-1.874-1.545 0-2.229.633-2.229 1.52 0 .759.481 1.19 1.672 1.342l2.279.307c3.572.481 5.091 1.929 5.091 4.737 0 3.09-2.406 5.268-6.687 5.268-4.432 0-6.662-2.128-6.964-5.294h4.482ZM62.462 17.597v-7.446h-2.001V7.06c2.584-.178 3.597-1.14 3.698-3.522h2.964v2.913h3.523v3.699h-3.523v6.66c0 1.572.659 2.053 1.95 2.053a6.081 6.081 0 0 0 1.166-.127v3.521a8.849 8.849 0 0 1-2.306.279c-3.823 0-5.47-1.723-5.47-4.94ZM81.132 19.598h-.198c-.735 1.848-2.128 2.938-4.534 2.938-3.142 0-4.838-1.95-4.838-4.458 0-2.33 1.317-3.952 4.888-4.607l2.685-.483c1.368-.252 1.85-.734 1.85-1.545 0-1.088-.76-1.722-2.229-1.722-1.621 0-2.432.734-2.584 2h-4.437c.481-3.393 2.963-5.57 7.194-5.57 4.558 0 6.712 2.305 6.712 5.85v10.234h-4.509v-2.637Zm-.152-4.636c-.405.304-.937.536-1.671.71l-1.393.33c-1.215.278-1.671.835-1.671 1.696 0 1.115.785 1.748 2.102 1.748 1.57 0 2.634-.857 2.634-2.888v-1.596ZM95.77 6.148c4.914 0 7.649 2.685 8.004 6.992h-4.607c-.227-1.95-1.286-3.192-3.42-3.192-2.38 0-3.722 1.494-3.722 4.307 0 2.988 1.443 4.483 3.773 4.483 1.976 0 3.215-1.166 3.445-3.268h4.635c-.429 4.408-3.393 7.071-8.232 7.071-5.319 0-8.334-3.191-8.334-8.13-.003-4.995 3.341-8.263 8.457-8.263ZM114.598 19.598h-.203c-.734 1.848-2.127 2.938-4.533 2.938-3.141 0-4.839-1.95-4.839-4.458 0-2.33 1.318-3.952 4.889-4.607l2.685-.483c1.369-.252 1.85-.734 1.85-1.545 0-1.088-.761-1.722-2.23-1.722-1.621 0-2.431.734-2.583 2h-4.433c.481-3.393 2.964-5.57 7.194-5.57 4.559 0 6.712 2.305 6.712 5.85v10.234h-4.509v-2.637Zm-.151-4.636c-.405.304-.938.536-1.673.71l-1.393.33c-1.216.278-1.671.835-1.671 1.696 0 1.115.785 1.748 2.102 1.748 1.571 0 2.635-.857 2.635-2.888v-1.596ZM125.77 6.45v3.825h.227c.786-3.214 1.93-4.103 3.445-4.103.319-.001.636.05.938.152v4.382a9.044 9.044 0 0 0-1.266-.102c-2.205 0-3.09.888-3.09 3.369v8.257h-4.661V6.45h4.407ZM131.781 6.63c1.216-.482 1.721-1.47 1.798-3.09h2.863v2.912h3.52v3.699h-3.52v6.66c0 1.572.658 2.053 1.95 2.053a6.051 6.051 0 0 0 1.165-.127v3.521a8.834 8.834 0 0 1-2.306.279c-3.824 0-5.47-1.723-5.47-4.94V6.63Z" fill="#003D29"/></g><defs><clipPath id="a"><path fill="#fff" transform="translate(0 .5)" d="M0 0h140v23H0z"/></clipPath></defs></svg>